<svg id="Layer_1" data-name="Layer 1" xmlns="http://www.w3.org/2000/svg" width="139" height="93" viewBox="0 0 139 93"><defs><style>.cls-1{fill:#1b9b79;}.cls-2{fill:#fff;}</style></defs><title>logo_kirke</title><polygon class="cls-1" points="76 22 76 6 58 8 31 51 12 82 99 82 110 90 110 82 129 82 110 57 110 38 119 38 119 28 110 28 110 16 96 11 96 28 81 28 76 28 76 22"/><polygon class="cls-2" points="43 73 28 73 37 57 43 59 43 73"/><polygon class="cls-2" points="69 13 90 40 96 40 110 73 98 73 98 61 91 59 83 73 74 73 74 63 66 63 61 73 56 73 59 60 50 55 69 13"/><circle class="cls-2" cx="40.5" cy="52.5" r="2.5"/><circle class="cls-1" cx="57.5" cy="53.5" r="2.5"/><circle class="cls-1" cx="70.5" cy="58.5" r="2.5"/><circle class="cls-1" cx="95.5" cy="55.5" r="2.5"/></svg>
