<svg id="Layer_1" data-name="Layer 1" xmlns="http://www.w3.org/2000/svg" viewBox="0 0 290 244"><defs><style>.cls-1{opacity:0.63;}.cls-2{fill:#bff2ff;}.cls-3{isolation:isolate;}.cls-4{fill:#585555;}</style></defs><title>ux1</title><g id="Ellipse_1" data-name="Ellipse 1" class="cls-1"><ellipse class="cls-2" cx="144.9" cy="118.35" rx="145" ry="119"/><path class="cls-2" d="M144.9,237.35C65,237.35-.1,184-.1,118.35S65-.65,144.9-.65s145,53.39,145,119S224.85,237.35,144.9,237.35Zm0-237C65.5.35.9,53.29.9,118.35s64.6,118,144,118,144-52.93,144-118S224.3.35,144.9.35Z"/></g><g id="UX" class="cls-3"><g class="cls-3"><path class="cls-4" d="M125.67,139.25a13.93,13.93,0,0,0,6.93-1.57,12.13,12.13,0,0,0,4.35-4.12,17.6,17.6,0,0,0,2.26-5.8,32.78,32.78,0,0,0,.66-6.55V100.5h3v20.71a34,34,0,0,1-.9,7.89,19.14,19.14,0,0,1-2.92,6.64,14.66,14.66,0,0,1-5.28,4.55,20,20,0,0,1-16.24-.09,14.58,14.58,0,0,1-5.31-4.7,19.14,19.14,0,0,1-2.84-6.64,34.49,34.49,0,0,1-.84-7.65V100.5h3v20.71a33.46,33.46,0,0,0,.66,6.67,16.62,16.62,0,0,0,2.32,5.77,12.49,12.49,0,0,0,4.38,4.06A13.86,13.86,0,0,0,125.67,139.25Z"/><path class="cls-4" d="M151.42,100.5l14.44,18.74,14.38-18.74h3.37l-16.18,20.88,15.71,20.3h-3.36l-13.92-18.15-14,18.15h-3.42l15.72-20.3L148,100.5Z"/></g></g></svg>
