<?xml version="1.0" standalone="no"?>
<!DOCTYPE svg PUBLIC "-//W3C//DTD SVG 20010904//EN"
 "http://www.w3.org/TR/2001/REC-SVG-20010904/DTD/svg10.dtd">
<svg version="1.0" xmlns="http://www.w3.org/2000/svg"
 width="260.000000pt" height="260.000000pt" viewBox="0 0 260.000000 260.000000"
 preserveAspectRatio="xMidYMid meet">
<metadata>
Created by potrace 1.11, written by Peter Selinger 2001-2013
</metadata>
<g transform="translate(0.000000,260.000000) scale(0.100000,-0.100000)"
fill="#000000" stroke="none">
<path d="M0 1300 l0 -1300 1300 0 1300 0 0 1300 0 1300 -1300 0 -1300 0 0
-1300z m2590 0 l0 -1290 -1290 0 -1290 0 0 1290 0 1290 1290 0 1290 0 0 -1290z"/>
<path d="M1698 2442 c-67 -43 -69 -52 -40 -167 17 -65 21 -72 60 -93 64 -36
55 -70 -9 -36 -28 14 -32 14 -50 -2 -10 -9 -19 -25 -19 -36 0 -24 -2 -24 -65
18 -54 36 -56 36 -75 19 -19 -17 -21 -17 -38 -2 -24 22 -58 21 -102 -3 -34
-18 -35 -18 -56 2 -22 19 -22 19 -60 0 -22 -11 -64 -27 -94 -37 -132 -43 -237
-122 -286 -217 -39 -76 -34 -148 17 -251 57 -114 132 -190 217 -218 l64 -21
20 20 c14 13 28 56 44 133 12 63 30 135 39 162 17 46 18 47 59 47 30 0 48 6
61 20 25 28 40 25 110 -20 65 -43 161 -80 205 -80 38 0 60 29 60 78 0 39 26
112 40 112 4 0 15 -18 25 -39 9 -21 35 -56 56 -77 21 -21 39 -46 39 -56 0 -29
-628 -1277 -673 -1338 -22 -30 -51 -69 -65 -87 l-24 -32 122 -61 c117 -58 123
-60 141 -44 18 16 20 16 37 1 17 -15 66 -17 500 -17 275 0 482 4 482 9 0 5 -9
51 -19 102 -11 52 -29 162 -41 244 -23 161 -48 288 -79 412 -28 108 -57 290
-76 473 -9 85 -28 220 -42 300 l-26 145 -59 60 c-50 52 -58 66 -58 98 0 36 1
37 39 37 36 0 41 -4 80 -62 22 -35 41 -60 41 -57 0 3 -17 48 -38 100 -30 75
-43 95 -60 97 -14 2 -30 18 -42 43 -18 35 -24 39 -59 39 -39 0 -39 0 -59 60
-20 59 -20 60 -2 60 13 0 27 15 40 41 20 39 20 42 4 60 -9 10 -26 19 -37 19
-19 0 -20 1 -2 20 18 20 17 20 -24 20 -23 0 -59 9 -81 20 -55 28 -77 25 -142
-18z m-18 -602 c0 -33 -3 -40 -20 -40 -20 0 -160 66 -160 75 0 3 41 5 90 5
l90 0 0 -40z"/>
</g>
</svg>
